<svg width="541" height="467" viewBox="0 0 541 467" fill="none" xmlns="http://www.w3.org/2000/svg">
<path d="M91.0298 0L133.044 5.25172L141.796 91.0298H169.806V42.0138H220.572L224.073 91.0298H301.099L311.602 42.0138L362.369 45.5149V87.5286L379.874 91.0298V5.25172L444.645 8.75286V73.5241H470.904L474.405 119.039L525.172 124.291L514.668 264.337L491.911 259.085L484.909 292.346H465.652L470.904 344.863L379.874 339.611L386.877 386.877H444.645V446.396H379.874V392.128L297.597 386.877L301.099 334.359L224.073 325.607L213.57 392.128L150.549 386.877L147.048 442.895H91.0298V386.877H147.048V339.611H64.7712L61.27 281.842H29.7597L24.508 250.332H0L5.25172 119.039L64.7712 124.291V64.7712H91.0298V0Z" fill="url(#paint0_linear_333_3190)"/>
<path fill-rule="evenodd" clip-rule="evenodd" d="M178.027 40.3106C181.894 40.298 185.04 43.4228 185.052 47.29C185.105 63.4391 185.174 79.4175 185.883 95.3703C185.885 95.3999 185.886 95.4311 185.888 95.4637C185.921 96.195 185.989 97.6736 185.557 99.2413C185.123 100.816 184.303 102.036 183.939 102.578C183.916 102.612 183.895 102.643 183.876 102.672C181.731 105.889 177.384 106.759 174.166 104.614C171.141 102.597 170.191 98.6336 171.871 95.4925C171.168 79.3759 171.1 63.2864 171.048 47.3356C171.035 43.4684 174.16 40.3232 178.027 40.3106Z" fill="black"/>
<path fill-rule="evenodd" clip-rule="evenodd" d="M170.164 49.7958C170.262 45.9298 173.476 42.8751 177.342 42.973C195.977 43.4448 214.526 43.8582 233.077 43.8582C236.944 43.8582 240.079 46.9933 240.079 50.8605C240.079 54.7278 236.944 57.8628 233.077 57.8628C214.335 57.8628 195.634 57.4452 176.987 56.9731C173.121 56.8752 170.067 53.6618 170.164 49.7958Z" fill="black"/>
<path fill-rule="evenodd" clip-rule="evenodd" d="M228.463 46.6014C232.286 46.0152 235.86 48.6388 236.446 52.4614C238.602 66.5207 240.308 80.4468 241.812 94.4889C242.224 98.3342 239.441 101.785 235.596 102.197C231.75 102.609 228.299 99.8262 227.887 95.9809C226.397 82.0746 224.718 68.3706 222.603 54.5842C222.017 50.7617 224.641 47.1876 228.463 46.6014Z" fill="black"/>
<path fill-rule="evenodd" clip-rule="evenodd" d="M323.495 97.5977C323.663 101.461 320.667 104.73 316.803 104.898C290.356 106.047 263.995 106.679 237.512 106.679C233.645 106.679 230.51 103.544 230.51 99.6768C230.51 95.8095 233.645 92.6745 237.512 92.6745C263.772 92.6745 289.929 92.0481 316.195 90.9061C320.058 90.7382 323.327 93.7341 323.495 97.5977Z" fill="black"/>
<path fill-rule="evenodd" clip-rule="evenodd" d="M318.319 40.3107C322.186 40.3358 325.3 43.4911 325.275 47.3583C325.18 61.9591 324.474 76.2298 322.553 90.826C322.048 94.6602 318.531 97.3594 314.697 96.8549C310.863 96.3504 308.164 92.8332 308.668 88.999C310.492 75.1388 311.179 61.4754 311.271 47.2674C311.296 43.4002 314.451 40.2856 318.319 40.3107Z" fill="black"/>
<path fill-rule="evenodd" clip-rule="evenodd" d="M312.17 46.9165C312.389 43.0555 315.696 40.103 319.557 40.322C322.215 40.4727 324.912 40.6082 327.638 40.7452C341.571 41.4454 356.27 42.184 370.507 45.1956C370.644 45.2247 370.79 45.2542 370.943 45.2852C372.449 45.5907 374.705 46.0479 377.182 47.6995C380.4 49.8449 381.269 54.1924 379.124 57.4101C376.978 60.6277 372.631 61.4969 369.413 59.3515C369.367 59.3209 369.338 59.3033 369.322 59.2946L369.306 59.2858L369.302 59.2835L369.301 59.2832L369.295 59.281C369.289 59.2785 369.271 59.2718 369.235 59.2608C369.157 59.2365 369.017 59.1983 368.737 59.1359C368.535 59.0908 368.351 59.0524 368.111 59.0023C367.968 58.9726 367.806 58.9388 367.608 58.897C354.558 56.1364 341.167 55.4573 327.239 54.751C324.436 54.6088 321.612 54.4656 318.764 54.3041C314.903 54.0851 311.951 50.7776 312.17 46.9165Z" fill="black"/>
<path fill-rule="evenodd" clip-rule="evenodd" d="M368.952 45.6839C372.794 45.2436 376.266 48.0014 376.706 51.8435C377.351 57.4743 378.058 63.1911 378.769 68.9451C379.93 78.3371 381.104 87.8282 382.042 97.206C382.426 101.054 379.619 104.486 375.771 104.87C371.923 105.255 368.491 102.448 368.106 98.5995C367.18 89.3319 366.048 80.1888 364.906 70.955C364.19 65.1692 363.469 59.3477 362.792 53.4378C362.352 49.5956 365.11 46.1241 368.952 45.6839Z" fill="black"/>
<path fill-rule="evenodd" clip-rule="evenodd" d="M365.449 97.1497C365.865 93.3048 369.319 90.5249 373.164 90.9406C374.013 91.0324 374.855 91.1246 375.689 91.2161C382.582 91.9714 389.001 92.675 395.486 92.675C399.353 92.675 402.488 95.81 402.488 99.6772C402.488 103.545 399.353 106.68 395.486 106.68C388.183 106.68 380.971 105.886 374.173 105.139C373.329 105.046 372.49 104.954 371.658 104.864C367.814 104.448 365.034 100.995 365.449 97.1497Z" fill="black"/>
<path fill-rule="evenodd" clip-rule="evenodd" d="M394.509 94.5179C398.338 93.9773 401.88 96.6432 402.421 100.473C402.645 102.058 402.937 103.804 403.247 105.656C404.128 110.924 405.152 117.045 405.152 122.751C405.152 126.618 402.017 129.754 398.15 129.754C394.283 129.754 391.148 126.618 391.148 122.751C391.148 118.288 390.425 113.975 389.615 109.135C389.26 107.02 388.889 104.803 388.554 102.43C388.013 98.601 390.679 95.0585 394.509 94.5179Z" fill="black"/>
<path fill-rule="evenodd" clip-rule="evenodd" d="M386.709 122.752C386.709 118.885 389.844 115.75 393.711 115.75C405.995 115.75 417.736 117.786 429.082 119.754C430.116 119.934 431.145 120.112 432.172 120.289C435.983 120.944 438.542 124.565 437.887 128.376C437.232 132.187 433.611 134.746 429.8 134.091C428.816 133.922 427.841 133.753 426.872 133.585C415.31 131.585 404.73 129.755 393.711 129.755C389.844 129.755 386.709 126.62 386.709 122.752Z" fill="black"/>
<path fill-rule="evenodd" clip-rule="evenodd" d="M425.66 120.188C429.528 120.188 432.663 123.323 432.663 127.19V154.702C432.663 158.569 429.528 161.704 425.66 161.704C421.793 161.704 418.658 158.569 418.658 154.702V127.19C418.658 123.323 421.793 120.188 425.66 120.188Z" fill="black"/>
<path fill-rule="evenodd" clip-rule="evenodd" d="M417.824 153.832C418.304 149.994 421.804 147.272 425.641 147.752C440.636 149.627 455.695 150.361 470.922 150.361C474.789 150.361 477.924 153.496 477.924 157.363C477.924 161.23 474.789 164.365 470.922 164.365C455.25 164.365 439.596 163.61 423.904 161.649C420.067 161.169 417.345 157.669 417.824 153.832Z" fill="black"/>
<path fill-rule="evenodd" clip-rule="evenodd" d="M459.835 149.483C463.694 149.732 466.622 153.061 466.373 156.921C464.635 183.969 465.47 210.478 466.384 237.887C466.513 241.752 463.484 244.99 459.619 245.119C455.754 245.248 452.516 242.219 452.387 238.354C451.476 211.028 450.608 183.856 452.398 156.022C452.646 152.163 455.975 149.235 459.835 149.483Z" fill="black"/>
<path fill-rule="evenodd" clip-rule="evenodd" d="M455.056 231.549C455.256 227.687 458.548 224.717 462.41 224.917C463.685 224.982 465.49 225.237 467.107 225.466C467.267 225.488 467.424 225.51 467.58 225.532C469.511 225.803 471.573 226.086 473.576 226.264C475.625 226.445 477.314 226.488 478.525 226.374C478.809 226.348 479.02 226.317 479.171 226.29C481.913 224.246 485.811 224.469 488.301 226.959C491.035 229.693 491.035 234.127 488.3 236.861C485.607 239.554 481.9 240.124 479.834 240.318C477.367 240.549 474.694 240.422 472.338 240.213C469.936 240 467.55 239.67 465.632 239.401C463.511 239.103 462.3 238.934 461.688 238.903C457.826 238.703 454.857 235.411 455.056 231.549ZM479.475 226.218C479.475 226.218 479.461 226.224 479.43 226.232C479.459 226.222 479.474 226.217 479.475 226.218Z" fill="black"/>
<path fill-rule="evenodd" clip-rule="evenodd" d="M484.253 116.632C488.12 116.641 491.247 119.784 491.238 123.651C491.225 129.104 491.265 134.636 491.306 140.222C491.467 162.342 491.635 185.313 488.508 207.635C487.469 215.051 485.6 222.345 482.712 229.276C481.225 232.846 477.125 234.534 473.555 233.047C469.985 231.56 468.297 227.46 469.785 223.89C472.157 218.197 473.744 212.079 474.639 205.693C477.609 184.491 477.456 162.843 477.3 140.835C477.26 135.119 477.219 129.38 477.233 123.617C477.243 119.75 480.385 116.622 484.253 116.632Z" fill="black"/>
<path fill-rule="evenodd" clip-rule="evenodd" d="M477.248 125.843C477.501 121.984 480.834 119.061 484.693 119.314C489.192 119.609 493.649 119.959 498.072 120.306C508.717 121.142 519.159 121.962 529.497 121.962C533.364 121.962 536.499 125.097 536.499 128.964C536.499 132.831 533.364 135.966 529.497 135.966C518.578 135.966 507.264 135.079 496.397 134.226C492.103 133.889 487.879 133.558 483.777 133.289C479.918 133.036 476.995 129.702 477.248 125.843Z" fill="black"/>
<path fill-rule="evenodd" clip-rule="evenodd" d="M390.16 7.47363C394.028 7.47363 397.163 10.6087 397.163 14.4759C397.163 28.9149 397.384 43.3592 397.606 57.8635L397.606 57.8975C397.828 72.3726 398.05 86.9076 398.05 101.45C398.05 105.317 394.915 108.453 391.048 108.453C387.181 108.453 384.046 105.317 384.046 101.45C384.046 87.0213 383.825 72.5821 383.603 58.0778L383.602 58.0589C383.381 43.5787 383.158 29.0336 383.158 14.4759C383.158 10.6087 386.293 7.47363 390.16 7.47363Z" fill="black"/>
<path fill-rule="evenodd" clip-rule="evenodd" d="M384.952 11.3059C385.23 7.44862 388.582 4.54706 392.44 4.82506C399.191 5.31168 405.767 5.54798 412.505 5.79011C417.395 5.96581 422.37 6.14458 427.559 6.42428C439.515 7.06867 451.768 8.23372 463.746 11.2285C467.498 12.1665 469.779 15.9683 468.841 19.7201C467.903 23.4719 464.101 25.7529 460.35 24.8149C449.657 22.1417 438.443 21.0358 426.805 20.4086C422.21 20.1609 417.392 19.9847 412.513 19.8063C405.446 19.5479 398.253 19.2849 391.433 18.7934C387.576 18.5154 384.674 15.1631 384.952 11.3059Z" fill="black"/>
<path fill-rule="evenodd" clip-rule="evenodd" d="M453.521 8.5109C457.307 7.72216 461.015 10.1519 461.804 13.9379C464.348 26.1486 465.403 38.393 465.403 50.7178C465.403 50.8905 465.407 51.1222 465.412 51.3977C465.432 52.5214 465.465 54.3749 465.283 55.9374C465.022 58.1875 464.237 61.2423 461.676 63.8044C458.941 66.539 454.507 66.5391 451.773 63.8046C449.18 61.2116 449.045 57.0907 451.37 54.3395C451.371 54.3331 451.372 54.3265 451.372 54.3197C451.407 54.0235 451.425 53.6119 451.423 52.9715C451.422 52.6674 451.417 52.3564 451.411 51.9897L451.411 51.9454C451.405 51.577 451.398 51.1514 451.398 50.7178C451.398 39.1954 450.412 27.9229 448.094 16.7941C447.305 13.0082 449.735 9.29963 453.521 8.5109Z" fill="black"/>
<path fill-rule="evenodd" clip-rule="evenodd" d="M377.966 70.8091C378.714 67.0149 382.396 64.5456 386.19 65.2938C417.159 71.4004 448.398 71.388 480.674 71.3751C482.154 71.3745 483.637 71.3739 485.122 71.3739C488.989 71.3739 492.125 74.509 492.125 78.3762C492.125 82.2435 488.989 85.3785 485.122 85.3785C483.505 85.3785 481.886 85.3794 480.265 85.3802C448.332 85.3967 415.835 85.4135 383.481 79.0338C379.687 78.2856 377.217 74.6033 377.966 70.8091Z" fill="black"/>
<path fill-rule="evenodd" clip-rule="evenodd" d="M478.74 76.7777C482.563 76.1933 486.136 78.8186 486.72 82.6415C487.158 85.5092 487.642 88.4446 488.134 91.4323C490.063 103.15 492.125 115.672 492.125 128.074C492.125 131.941 488.99 135.077 485.123 135.077C481.256 135.077 478.121 131.941 478.121 128.074C478.121 116.933 476.306 105.878 474.406 94.2967C473.891 91.1597 473.37 87.9841 472.876 84.7577C472.292 80.9348 474.917 77.362 478.74 76.7777Z" fill="black"/>
<path fill-rule="evenodd" clip-rule="evenodd" d="M533.094 126.397C536.961 126.423 540.075 129.58 540.048 133.447C539.861 160.813 537.641 186.966 533.867 213.9C531.56 230.362 530.831 247.091 530.282 264.086C530.158 267.951 526.923 270.984 523.058 270.859C519.193 270.734 516.16 267.5 516.285 263.634C516.834 246.618 517.577 229.229 519.998 211.956C523.701 185.526 525.861 159.999 526.044 133.351C526.07 129.484 529.227 126.37 533.094 126.397Z" fill="black"/>
<path fill-rule="evenodd" clip-rule="evenodd" d="M489.658 268.295C489.658 264.428 492.793 261.293 496.66 261.293C506.432 261.293 516.152 261.761 526.025 263.135C529.855 263.668 532.529 267.205 531.996 271.035C531.463 274.865 527.926 277.539 524.095 277.006C515.035 275.745 505.989 275.298 496.66 275.298C492.793 275.298 489.658 272.163 489.658 268.295Z" fill="black"/>
<path fill-rule="evenodd" clip-rule="evenodd" d="M497.549 261.293C501.417 261.293 504.552 264.428 504.552 268.295C504.552 270.981 504.605 273.809 504.661 276.722C504.796 283.856 504.941 291.494 504.33 298.761C504.328 298.787 504.325 298.814 504.323 298.842C504.253 299.683 504.098 301.561 503.119 303.366C502.024 305.386 500.371 306.485 499.714 306.922C499.695 306.935 499.676 306.947 499.659 306.959C496.441 309.104 492.094 308.235 489.948 305.017C488.168 302.347 488.464 298.899 490.454 296.577C490.91 290.4 490.792 284.265 490.667 277.814C490.608 274.727 490.547 271.567 490.547 268.295C490.547 264.428 493.682 261.293 497.549 261.293Z" fill="black"/>
<path fill-rule="evenodd" clip-rule="evenodd" d="M501.845 296.818C502.268 300.662 499.495 304.121 495.651 304.544C480.606 306.2 465.751 307.249 450.51 307.249C446.643 307.249 443.508 304.114 443.508 300.246C443.508 296.379 446.643 293.244 450.51 293.244C465.106 293.244 479.43 292.241 494.118 290.624C497.963 290.201 501.422 292.974 501.845 296.818Z" fill="black"/>
<path fill-rule="evenodd" clip-rule="evenodd" d="M450.649 288.85C454.494 288.436 457.946 291.217 458.361 295.062C458.452 295.913 458.544 296.764 458.636 297.617C460.277 312.792 461.951 328.278 461.951 344.033C461.951 344.098 461.951 344.166 461.951 344.236C461.953 345.779 461.956 348.454 461.086 350.964C459.947 354.249 457.56 356.801 453.999 358.226C450.409 359.662 446.334 357.916 444.897 354.325C443.583 351.041 444.933 347.351 447.92 345.646C447.941 345.239 447.946 344.736 447.946 344.033C447.946 329.057 446.348 314.264 444.69 298.907C444.605 298.127 444.521 297.346 444.437 296.563C444.022 292.718 446.804 289.265 450.649 288.85Z" fill="black"/>
<path fill-rule="evenodd" clip-rule="evenodd" d="M473.892 293.404C477.673 292.593 481.396 295.001 482.208 298.782C482.679 300.98 483.34 303.651 484.069 306.598C485.492 312.355 487.175 319.163 488.218 325.547C489.826 335.393 490.459 346.756 486.197 356.344C484.627 359.878 480.489 361.47 476.955 359.899C473.421 358.329 471.829 354.191 473.4 350.657C475.919 344.988 475.913 337.088 474.396 327.804C473.424 321.848 472.049 316.328 470.723 311.006C469.938 307.858 469.171 304.779 468.515 301.72C467.703 297.939 470.111 294.216 473.892 293.404Z" fill="black"/>
<path fill-rule="evenodd" clip-rule="evenodd" d="M386.709 350.832C386.709 346.965 389.844 343.83 393.711 343.83H478.91C482.778 343.83 485.913 346.965 485.913 350.832C485.913 354.7 482.778 357.835 478.91 357.835H393.711C389.844 357.835 386.709 354.7 386.709 350.832Z" fill="black"/>
<path fill-rule="evenodd" clip-rule="evenodd" d="M394.62 339.393C398.488 339.405 401.613 342.55 401.601 346.417C401.578 353.739 401.749 361.353 401.924 369.141C402.473 393.517 403.06 419.595 397.843 443.724C397.77 444.061 397.691 444.452 397.603 444.883C397.243 446.649 396.746 449.09 396.011 451.277C395.059 454.11 393.369 457.688 389.925 460.271C386.831 462.591 382.442 461.964 380.122 458.87C377.801 455.776 378.428 451.387 381.522 449.067C381.706 448.929 382.19 448.441 382.736 446.815C383.169 445.527 383.434 444.24 383.768 442.611C383.885 442.042 384.011 441.431 384.155 440.764C388.989 418.409 388.463 394.736 387.931 370.762C387.751 362.653 387.571 354.511 387.596 346.373C387.608 342.506 390.753 339.38 394.62 339.393Z" fill="black"/>
<path fill-rule="evenodd" clip-rule="evenodd" d="M376.059 457.337C376.059 453.47 379.194 450.335 383.061 450.335C396.151 450.335 409.546 450.563 422.869 450.79C433.992 450.98 445.066 451.168 455.871 451.223C459.738 451.242 462.857 454.393 462.838 458.26C462.818 462.127 459.667 465.246 455.8 465.227C444.441 465.17 433.36 464.979 422.328 464.788C409.296 464.563 396.333 464.34 383.061 464.34C379.194 464.34 376.059 461.205 376.059 457.337Z" fill="black"/>
<path fill-rule="evenodd" clip-rule="evenodd" d="M451.778 388.229C455.636 387.948 458.989 390.848 459.27 394.705C459.575 398.903 460.008 403.197 460.457 407.653L460.482 407.897C460.936 412.405 461.404 417.069 461.738 421.754C462.406 431.108 462.57 440.887 460.968 450.501C460.332 454.316 456.724 456.892 452.91 456.257C449.095 455.621 446.518 452.013 447.154 448.199C448.49 440.178 448.405 431.667 447.769 422.751C447.452 418.301 447.005 413.835 446.548 409.302L446.514 408.972C446.071 404.58 445.621 400.115 445.302 395.72C445.022 391.863 447.921 388.509 451.778 388.229Z" fill="black"/>
<path fill-rule="evenodd" clip-rule="evenodd" d="M384.955 394.676C385.251 390.82 388.617 387.934 392.473 388.231C407.953 389.422 423.435 389.3 439.244 389.175C444.148 389.137 449.084 389.098 454.061 389.098C457.928 389.098 461.063 392.233 461.063 396.1C461.063 399.967 457.928 403.102 454.061 403.102C449.336 403.102 444.563 403.14 439.757 403.179C423.827 403.305 407.529 403.435 391.399 402.194C387.543 401.898 384.658 398.531 384.955 394.676Z" fill="black"/>
<path fill-rule="evenodd" clip-rule="evenodd" d="M294.465 395.225C294.945 391.388 298.444 388.666 302.282 389.146C316.371 390.907 330.532 391.435 344.952 391.692C348.855 391.762 352.791 391.811 356.75 391.861C367.307 391.994 378.031 392.129 388.728 392.65C392.591 392.838 395.57 396.122 395.382 399.984C395.193 403.847 391.91 406.826 388.047 406.638C377.621 406.13 367.281 406 356.812 405.868C352.799 405.818 348.766 405.767 344.703 405.694C330.154 405.435 315.393 404.898 300.545 403.042C296.707 402.562 293.985 399.063 294.465 395.225Z" fill="black"/>
<path fill-rule="evenodd" clip-rule="evenodd" d="M304.774 332.378C308.596 331.784 312.175 334.401 312.768 338.223C316.311 361.032 318.176 382.829 318.176 405.859C318.176 409.726 315.041 412.861 311.174 412.861C307.307 412.861 304.172 409.726 304.172 405.859C304.172 383.624 302.374 362.548 298.93 340.372C298.336 336.55 300.953 332.971 304.774 332.378Z" fill="black"/>
<path fill-rule="evenodd" clip-rule="evenodd" d="M234.947 336.636C234.947 332.769 238.082 329.634 241.95 329.634C266.127 329.634 290.147 331.884 313.813 334.1C316.999 334.399 320.179 334.696 323.353 334.988C327.204 335.342 330.038 338.751 329.684 342.602C329.33 346.453 325.922 349.288 322.071 348.934C318.868 348.64 315.675 348.341 312.488 348.043C288.755 345.822 265.426 343.638 241.95 343.638C238.082 343.638 234.947 340.503 234.947 336.636Z" fill="black"/>
<path fill-rule="evenodd" clip-rule="evenodd" d="M231.75 336.747C235.609 336.995 238.537 340.325 238.288 344.184C238.14 346.488 238.015 348.85 237.888 351.258C237.207 364.136 236.458 378.307 231.735 391.589C231.627 391.893 231.517 392.215 231.401 392.551C230.416 395.418 229.061 399.365 225.602 402.823C222.868 405.558 218.434 405.558 215.699 402.823C212.965 400.089 212.965 395.655 215.699 392.921C216.788 391.832 217.108 390.93 218.333 387.481C218.399 387.294 218.468 387.1 218.54 386.898C222.52 375.704 223.163 363.908 223.865 351.019C224.004 348.485 224.144 345.908 224.313 343.286C224.561 339.426 227.891 336.499 231.75 336.747Z" fill="black"/>
<path fill-rule="evenodd" clip-rule="evenodd" d="M154.186 394.324C154.186 390.456 157.321 387.321 161.188 387.321C172.302 387.321 183.343 388.561 194.039 389.935C196.046 390.193 198.037 390.455 200.014 390.715C208.702 391.859 217.134 392.969 225.569 393.55C229.427 393.816 232.339 397.16 232.073 401.018C231.807 404.876 228.464 407.788 224.606 407.522C215.694 406.907 206.734 405.727 198.023 404.579C196.086 404.324 194.162 404.071 192.253 403.826C181.629 402.46 171.344 401.326 161.188 401.326C157.321 401.326 154.186 398.191 154.186 394.324Z" fill="black"/>
<path fill-rule="evenodd" clip-rule="evenodd" d="M159.414 340.281C163.281 340.281 166.416 343.416 166.416 347.284C166.416 347.28 166.416 347.279 166.416 347.279C166.416 347.279 166.416 347.303 166.417 347.369L166.421 347.662L166.434 348.695C166.436 348.88 166.439 349.082 166.442 349.299C166.453 350.108 166.466 351.133 166.482 352.348C166.522 355.433 166.575 359.744 166.628 364.868C166.734 375.114 166.839 388.62 166.834 402.079C166.83 415.521 166.717 428.984 166.384 439.116C166.218 444.158 165.993 448.511 165.684 451.662C165.533 453.192 165.339 454.696 165.058 455.924C164.931 456.479 164.695 457.402 164.237 458.335C164.015 458.79 163.552 459.64 162.717 460.464C161.839 461.33 160.119 462.56 157.639 462.56C153.772 462.56 150.637 459.425 150.637 455.558C150.637 454.318 150.959 453.153 151.524 452.143C151.59 451.713 151.666 451.106 151.746 450.292C152.01 447.611 152.223 443.628 152.387 438.656C152.712 428.76 152.825 415.483 152.83 402.075C152.834 388.684 152.73 375.232 152.624 365.012C152.553 358.087 152.48 352.568 152.441 349.616C152.423 348.251 152.412 347.435 152.412 347.284C152.412 343.416 155.547 340.281 159.414 340.281ZM151.389 452.871C151.388 452.87 151.392 452.853 151.401 452.823C151.393 452.856 151.389 452.871 151.389 452.871Z" fill="black"/>
<path fill-rule="evenodd" clip-rule="evenodd" d="M88.6591 443.231C112.307 443.065 134.893 445.768 157.882 449.535C161.698 450.161 164.285 453.761 163.659 457.578C163.034 461.394 159.433 463.981 155.617 463.356C133.051 459.658 111.391 457.091 88.9279 457.234C88.9324 457.234 88.9347 457.235 88.9348 457.235C88.9355 457.243 88.6438 457.277 87.8288 457.411C87.7155 457.43 87.5953 457.45 87.4693 457.471C86.6808 457.601 85.6697 457.768 84.7634 457.886C84.2336 457.955 83.6135 458.024 83.0022 458.055L83.0019 458.055C82.5945 458.076 81.4259 458.136 80.1759 457.833C79.6746 457.711 77.8807 457.254 76.3965 455.583C75.5342 454.613 74.8567 453.313 74.6546 451.772C74.4612 450.297 74.7611 449.052 75.1012 448.194C75.7063 446.667 76.6838 445.73 77.0334 445.406C77.5044 444.97 77.9714 444.636 78.3157 444.407C80.2998 443.084 82.7136 442.907 84.7757 443.721C84.8975 443.701 85.0212 443.681 85.1466 443.66C85.2819 443.638 85.4193 443.615 85.5587 443.592C85.6042 443.584 85.6549 443.576 85.7102 443.567C86.3705 443.457 87.6904 443.238 88.6591 443.231ZM82.2856 444.069C82.1734 444.075 82.1918 444.067 82.3067 444.068C82.2991 444.068 82.292 444.069 82.2856 444.069Z" fill="black"/>
<path fill-rule="evenodd" clip-rule="evenodd" d="M96.063 387.429C99.8706 386.752 103.506 389.29 104.183 393.097C108.223 415.823 109.616 437.345 109.616 459.997C109.616 463.865 106.481 467 102.614 467C98.7463 467 95.6113 463.865 95.6113 459.997C95.6113 437.949 94.2571 417.276 90.3944 395.548C89.7175 391.741 92.2554 388.106 96.063 387.429Z" fill="black"/>
<path fill-rule="evenodd" clip-rule="evenodd" d="M93.8751 394.478C94.2808 390.632 97.7274 387.843 101.573 388.249C106.315 388.749 110.961 389.331 115.544 389.906C126.097 391.228 136.313 392.508 146.591 392.649C147.048 392.655 147.488 392.685 147.821 392.711C148.064 392.73 148.339 392.755 148.574 392.776C148.655 392.783 148.731 392.79 148.8 392.796C149.047 392.818 149.262 392.835 149.451 392.848C151.455 391.58 154.056 391.361 156.332 392.5C159.791 394.229 161.193 398.435 159.464 401.894C158.103 404.617 155.746 405.819 154.164 406.324C152.636 406.812 151.168 406.881 150.218 406.883C149.205 406.886 148.231 406.804 147.578 406.747C147.458 406.737 147.352 406.727 147.255 406.719C147.051 406.7 146.889 406.686 146.723 406.673C146.613 406.664 146.532 406.659 146.472 406.655C146.42 406.652 146.397 406.652 146.397 406.652L146.399 406.652C135.306 406.5 123.839 405.065 112.952 403.703C108.554 403.152 104.25 402.614 100.104 402.176C96.2583 401.771 93.4695 398.324 93.8751 394.478ZM150.391 392.871C150.391 392.871 150.384 392.872 150.37 392.873C150.384 392.872 150.391 392.871 150.391 392.871Z" fill="black"/>
<path fill-rule="evenodd" clip-rule="evenodd" d="M70.0234 343.735C70.0234 339.867 73.1585 336.732 77.0257 336.732C86.8828 336.732 100.296 336.734 113.721 336.735L113.756 336.735C127.193 336.737 140.638 336.738 150.539 336.738C154.407 336.738 157.542 339.873 157.542 343.741C157.542 347.608 154.407 350.743 150.539 350.743C140.637 350.743 127.191 350.742 113.754 350.74L113.684 350.74C100.271 350.739 86.8732 350.737 77.0257 350.737C73.1585 350.737 70.0234 347.602 70.0234 343.735Z" fill="black"/>
<path fill-rule="evenodd" clip-rule="evenodd" d="M96.634 282.625C100.484 282.264 103.899 285.092 104.26 288.942C104.573 292.274 104.972 295.766 105.381 299.335C106.167 306.208 106.987 313.367 107.281 320.224C107.741 330.958 107.027 342.101 102.981 353.226C101.66 356.861 97.6421 358.736 94.0077 357.414C90.3732 356.093 88.4984 352.075 89.82 348.44C93.0056 339.68 93.7068 330.56 93.2891 320.824C93.014 314.41 92.2984 308.196 91.5492 301.69C91.1244 298 90.6888 294.217 90.3165 290.251C89.9552 286.4 92.7836 282.986 96.634 282.625Z" fill="black"/>
<path fill-rule="evenodd" clip-rule="evenodd" d="M76.0793 280.088C79.9464 280.066 83.0995 283.183 83.1218 287.05C83.1482 291.643 83.188 296.245 83.2278 300.856C83.3462 314.565 83.4651 328.343 83.2371 342.12C83.2384 342.039 83.2389 341.983 83.2421 341.983C83.2491 341.983 83.2691 342.248 83.3396 343.094C83.4089 343.926 83.4986 345.081 83.5298 346.186L83.5305 346.212C83.5519 346.966 83.6054 348.855 83.1149 350.516C82.9695 351.008 82.6348 351.999 81.8696 353.014C81.033 354.123 79.3391 355.656 76.7022 355.879C74.2731 356.083 72.5202 355.034 71.7239 354.443C70.888 353.823 70.3323 353.144 70.0272 352.738C68.3335 350.484 68.2053 347.541 69.4577 345.211C69.4353 344.896 69.4098 344.574 69.3833 344.256C69.3714 344.113 69.3577 343.952 69.3442 343.793C69.3249 343.567 69.3057 343.342 69.2921 343.172C69.2912 343.162 69.2902 343.149 69.289 343.134C69.2724 342.933 69.2264 342.374 69.2344 341.888C69.4593 328.303 69.3426 314.779 69.2247 301.117C69.1846 296.473 69.1444 291.814 69.1174 287.131C69.0951 283.264 72.2121 280.111 76.0793 280.088ZM69.526 347.324C69.5256 347.324 69.5267 347.305 69.5304 347.271C69.5283 347.308 69.5264 347.325 69.526 347.324Z" fill="black"/>
<path fill-rule="evenodd" clip-rule="evenodd" d="M31.9822 286.784C33.0447 283.066 36.9204 280.913 40.6389 281.975C43.4875 282.789 46.3491 282.73 50.2674 282.65C51.5775 282.623 53.0059 282.593 54.5913 282.593C72.7025 282.593 91.2643 282.741 109.793 285.323C113.624 285.857 116.296 289.394 115.762 293.225C115.229 297.055 111.691 299.727 107.861 299.193C90.4108 296.762 72.7467 296.598 54.5913 296.598C53.778 296.598 52.8579 296.621 51.8578 296.647C47.6007 296.754 41.8928 296.899 36.7912 295.441C33.0728 294.379 30.9197 290.503 31.9822 286.784Z" fill="black"/>
<path fill-rule="evenodd" clip-rule="evenodd" d="M36.302 255.113C40.1532 254.762 43.5602 257.599 43.9116 261.45C44.0896 263.401 44.273 265.363 44.4573 267.334C45.2094 275.377 45.9756 283.572 46.4437 291.763C46.4515 291.9 46.4689 292.139 46.4908 292.441C46.5473 293.219 46.6338 294.408 46.6625 295.304C46.7067 296.68 46.6989 298.707 46.1864 300.706C45.8699 301.941 45.1789 303.684 43.5804 305.105C41.807 306.682 39.6564 307.209 37.7762 307.077C34.7501 306.864 32.722 305.048 31.9869 304.313C29.2524 301.578 29.2524 297.145 31.9869 294.41C32.1688 294.228 32.3582 294.058 32.5541 293.901C32.5532 293.888 32.5522 293.875 32.5513 293.862C32.5204 293.446 32.4855 292.975 32.4619 292.562C32.0098 284.649 31.2735 276.772 30.5241 268.753C30.3371 266.753 30.1494 264.744 29.965 262.723C29.6135 258.872 32.4507 255.465 36.302 255.113Z" fill="black"/>
<path fill-rule="evenodd" clip-rule="evenodd" d="M12.5481 249.091C10.473 247.062 7.26215 246.466 4.52066 247.837C1.0617 249.566 -0.340272 253.772 1.38927 257.231C1.83707 258.127 2.73437 259.734 4.61885 260.922C5.37763 261.401 6.07778 261.67 6.42529 261.798C6.61401 261.867 6.99168 261.997 7.16979 262.058C7.21681 262.074 7.24992 262.085 7.26198 262.089C12.05 263.765 17.14 264.407 21.733 264.755C23.8904 264.918 26.047 265.023 28.0605 265.12C28.208 265.128 28.3546 265.135 28.5005 265.142C30.6806 265.248 32.6792 265.35 34.5594 265.513C38.4122 265.847 41.8064 262.995 42.1406 259.142C42.4748 255.289 39.6224 251.895 35.7696 251.561C33.5872 251.372 31.3355 251.258 29.1803 251.154C29.0466 251.147 28.9134 251.141 28.7804 251.134C26.7267 251.035 24.7502 250.939 22.7903 250.79C18.8789 250.494 15.4583 250.013 12.5481 249.091Z" fill="black"/>
<path fill-rule="evenodd" clip-rule="evenodd" d="M15.0955 133.517C18.9511 133.216 22.32 136.099 22.6202 139.954C24.0366 158.15 22.8805 176.092 21.4255 193.578C21.1894 196.416 20.9459 199.238 20.7034 202.048C19.4387 216.703 18.2038 231.014 18.2038 245.419V263.859C18.2038 267.726 15.0688 270.862 11.2015 270.862C7.33425 270.862 4.19922 267.726 4.19922 263.859V245.419C4.19922 230.355 5.49625 215.348 6.76251 200.696C7.00217 197.923 7.24074 195.162 7.4692 192.417C8.91769 175.009 9.98035 158.031 8.65782 141.041C8.35768 137.186 11.2399 133.817 15.0955 133.517Z" fill="black"/>
<path fill-rule="evenodd" clip-rule="evenodd" d="M9.52359 128.916C9.54845 125.049 12.7036 121.934 16.5708 121.959C24.9629 122.013 41.614 122.46 54.0507 122.891C60.2528 123.105 65.5183 123.32 68.2114 123.485C68.8654 123.525 69.4892 123.569 69.9606 123.619C69.9652 123.62 69.9713 123.62 69.9786 123.621C70.1122 123.635 70.6834 123.694 71.2772 123.848C71.4403 123.89 71.9312 124.02 72.5129 124.291C72.795 124.423 73.3755 124.714 74.0057 125.232C74.5552 125.683 75.8616 126.892 76.3709 129.006C76.979 131.531 76.0868 133.687 75.0582 134.99C74.1975 136.08 73.2343 136.63 72.8458 136.837C72.0326 137.27 71.3167 137.437 71.1394 137.479L71.1302 137.481C70.4227 137.647 69.7373 137.68 69.63 137.685C69.6243 137.686 69.6202 137.686 69.6179 137.686C69.3467 137.701 69.0447 137.711 68.7392 137.718C68.1182 137.732 67.2798 137.739 66.2254 137.739C65.3446 137.739 64.5019 137.576 63.7255 137.279C61.0595 137.16 57.5448 137.025 53.5658 136.887C41.1526 136.457 24.6653 136.016 16.4807 135.963C12.6135 135.939 9.49872 132.783 9.52359 128.916ZM68.4695 137.544C68.557 137.553 68.5397 137.554 68.4523 137.542C68.4585 137.543 68.4642 137.543 68.4695 137.544ZM68.7992 123.705C68.9129 123.695 68.9378 123.697 68.8262 123.704C68.8194 123.704 68.8104 123.705 68.7992 123.705Z" fill="black"/>
<path fill-rule="evenodd" clip-rule="evenodd" d="M75.1311 75.8077C78.9983 75.8242 82.1199 78.9727 82.1033 82.8399C82.0293 100.117 81.8299 117.31 81.6309 134.469C81.3018 162.839 80.9739 191.114 81.2157 219.523C81.2281 220.985 81.184 222.739 81.1398 224.497C81.1274 224.992 81.1149 225.487 81.1037 225.976C81.0505 228.301 81.0181 230.688 81.0954 232.998C81.1733 235.327 81.3583 237.408 81.6903 239.129C82.0371 240.927 82.4574 241.857 82.7024 242.225C84.8475 245.442 83.9779 249.79 80.7601 251.935C77.5423 254.08 73.1948 253.21 71.0497 249.993C69.3349 247.42 68.4499 244.429 67.9392 241.782C67.4137 239.058 67.1891 236.17 67.0987 233.467C67.0076 230.745 67.0483 228.034 67.1028 225.656C67.1163 225.065 67.1304 224.504 67.1437 223.97C67.1863 222.268 67.2218 220.846 67.2116 219.642C66.9689 191.13 67.2996 162.562 67.6295 134.064C67.8278 116.934 68.0258 99.8307 68.0988 82.7799C68.1154 78.9127 71.2638 75.7911 75.1311 75.8077Z" fill="black"/>
<path fill-rule="evenodd" clip-rule="evenodd" d="M96.4019 153.024C100.269 153.024 103.404 156.159 103.404 160.027C103.404 177.903 103.692 195.739 103.981 213.643C104.089 220.347 104.198 227.06 104.291 233.789L104.291 233.812C104.311 235.196 104.337 237.097 103.917 239.044C103.44 241.252 102.493 243.155 101.116 244.99C98.7961 248.084 94.407 248.711 91.3132 246.391C88.2193 244.07 87.5922 239.681 89.9125 236.587C90.1255 236.303 90.1982 236.159 90.2148 236.125C90.2195 236.115 90.2216 236.11 90.2231 236.106C90.2245 236.102 90.2254 236.097 90.2276 236.087C90.2369 236.044 90.2639 235.899 90.2801 235.55C90.2974 235.178 90.2979 234.711 90.2878 233.983C90.1953 227.324 90.0876 220.653 89.9798 213.973C89.6902 196.031 89.3996 178.025 89.3996 160.027C89.3996 156.159 92.5346 153.024 96.4019 153.024Z" fill="black"/>
<path fill-rule="evenodd" clip-rule="evenodd" d="M59.0747 225.23C60.8042 221.771 65.0103 220.369 68.4693 222.098C69.1461 222.437 69.665 222.608 71.0006 222.875C81.0373 224.883 90.7271 227.721 100.168 230.523C103.875 231.624 105.988 235.522 104.888 239.229C103.787 242.936 99.8896 245.05 96.1822 243.949C86.6963 241.133 77.5806 238.473 68.2541 236.608C66.2805 236.213 64.4256 235.734 62.2063 234.624C58.7473 232.895 57.3453 228.689 59.0747 225.23Z" fill="black"/>
<path fill-rule="evenodd" clip-rule="evenodd" d="M130.126 147.697C133.994 147.697 137.129 150.832 137.129 154.7C137.129 154.755 137.129 154.824 137.129 154.904C137.131 155.307 137.135 155.987 137.101 156.563C137.059 157.284 136.933 158.671 136.251 160.149C134.429 164.101 130.678 165.012 128.627 165.253C119.584 166.317 110.433 166.243 101.766 166.173C99.6503 166.156 97.5634 166.139 95.514 166.139C91.6468 166.139 88.5117 163.004 88.5117 159.137C88.5117 155.27 91.6468 152.135 95.514 152.135C97.8156 152.135 100.071 152.152 102.291 152.169C109.742 152.226 116.789 152.28 123.812 151.669C124.942 149.319 127.345 147.697 130.126 147.697ZM127.03 151.339C127.031 151.339 127.019 151.341 126.994 151.344C127.017 151.34 127.03 151.339 127.03 151.339Z" fill="black"/>
<path fill-rule="evenodd" clip-rule="evenodd" d="M124.322 124.636C128.18 124.372 131.522 127.286 131.785 131.144C132.447 140.815 132.689 150.414 132.689 160.022C132.689 163.889 129.554 167.024 125.687 167.024C121.82 167.024 118.685 163.889 118.685 160.022C118.685 150.646 118.448 141.376 117.813 132.099C117.55 128.241 120.464 124.9 124.322 124.636Z" fill="black"/>
<path fill-rule="evenodd" clip-rule="evenodd" d="M118.688 129.85C118.688 125.983 121.823 122.848 125.69 122.848H155.865C159.732 122.848 162.867 125.983 162.867 129.85C162.867 133.717 159.732 136.852 155.865 136.852H125.69C121.823 136.852 118.688 133.717 118.688 129.85Z" fill="black"/>
<path fill-rule="evenodd" clip-rule="evenodd" d="M154.088 40.3105C157.955 40.3105 161.091 43.4456 161.091 47.3128V127.187C161.091 131.054 157.955 134.189 154.088 134.189C150.221 134.189 147.086 131.054 147.086 127.187V47.3128C147.086 43.4456 150.221 40.3105 154.088 40.3105Z" fill="black"/>
<path fill-rule="evenodd" clip-rule="evenodd" d="M148.129 3.95401C151.98 3.60389 155.386 6.44221 155.737 10.2936C155.954 12.6825 156.402 15.4761 156.932 18.7853C156.953 18.9155 156.974 19.0464 156.995 19.1781C157.536 22.5494 158.135 26.3442 158.493 30.1552C159.176 37.4339 159.195 46.4983 154.701 53.6884C152.651 56.9679 148.331 57.9648 145.052 55.9151C141.772 53.8655 140.775 49.5454 142.825 46.266C144.676 43.3039 145.2 38.3958 144.549 31.464C144.24 28.1697 143.713 24.7997 143.167 21.3944C143.135 21.1954 143.103 20.9957 143.071 20.7956C142.571 17.682 142.052 14.4457 141.789 11.5615C141.439 7.71013 144.278 4.30414 148.129 3.95401Z" fill="black"/>
<path fill-rule="evenodd" clip-rule="evenodd" d="M97.5221 6.00539C98.2805 2.21323 101.97 -0.246099 105.762 0.512328C120.696 3.49922 135.41 6.11057 150.304 7.50687C154.155 7.86783 156.983 11.2818 156.622 15.1322C156.261 18.9825 152.847 21.8113 148.997 21.4503C133.377 19.986 118.105 17.2628 103.015 14.245C99.223 13.4865 96.7637 9.79755 97.5221 6.00539Z" fill="black"/>
<path fill-rule="evenodd" clip-rule="evenodd" d="M98.5366 1.40225C102.324 0.621946 106.027 3.05994 106.808 6.84766C107.215 8.82438 107.719 11.0297 108.249 13.348C109.187 17.4514 110.206 21.9084 110.911 26.077C112.067 32.9067 112.682 40.3539 111.267 47.8249C110.456 52.1046 108.784 56.3622 107.432 59.8029C107.098 60.6538 106.783 61.4548 106.506 62.1937C105.148 65.8148 101.112 67.6494 97.4908 66.2915C93.8698 64.9337 92.0352 60.8974 93.3931 57.2764C93.8347 56.0986 94.2603 55.0085 94.6619 53.9799C95.933 50.7242 96.9641 48.0831 97.507 45.2178C98.4793 40.0862 98.1343 34.5097 97.103 28.4129C96.4447 24.5215 95.6174 20.9271 94.7582 17.1934C94.2036 14.7838 93.6357 12.3162 93.0912 9.67338C92.3109 5.88566 94.7489 2.18255 98.5366 1.40225Z" fill="black"/>
<path fill-rule="evenodd" clip-rule="evenodd" d="M53.0117 70.3851C53.0117 66.5178 56.1468 63.3828 60.014 63.3828C86.6934 63.3828 113.934 66.4558 139.857 69.6478C143.695 70.1204 146.423 73.6151 145.951 77.4533C145.478 81.2916 141.983 84.02 138.145 83.5474C112.212 80.3541 85.7407 77.3874 60.014 77.3874C56.1468 77.3874 53.0117 74.2524 53.0117 70.3851Z" fill="black"/>
<path fill-rule="evenodd" clip-rule="evenodd" d="M148.859 99.6403C148.878 95.7731 152.027 92.6528 155.895 92.671C165.273 92.715 174.487 93.0539 183.762 93.5692C187.624 93.7837 190.58 97.0878 190.365 100.949C190.151 104.81 186.847 107.767 182.986 107.552C173.882 107.046 164.913 106.718 155.829 106.675C151.962 106.657 148.841 103.508 148.859 99.6403Z" fill="black"/>
<path fill-rule="evenodd" clip-rule="evenodd" d="M211.777 200.058C215.644 200.058 218.779 203.193 218.779 207.06C218.779 212.125 219.009 217.205 219.25 222.531C219.403 225.908 219.561 229.384 219.667 233.019C219.931 242.049 219.839 251.521 218.226 260.554C217.881 262.487 217.282 264.255 216.252 265.948C215.293 267.526 214.129 268.748 213.178 269.698C210.444 272.433 206.01 272.433 203.276 269.698C200.541 266.964 200.541 262.53 203.276 259.796C204.072 258.999 204.238 258.751 204.285 258.674L204.285 258.673C204.294 258.66 204.301 258.648 204.317 258.604C204.337 258.548 204.385 258.397 204.44 258.092C205.794 250.512 205.924 242.201 205.668 233.427C205.577 230.297 205.43 227.02 205.282 223.705C205.031 218.085 204.775 212.357 204.775 207.06C204.775 203.193 207.91 200.058 211.777 200.058Z" fill="black"/>
<path fill-rule="evenodd" clip-rule="evenodd" d="M185.265 254.128C183.242 251.628 179.687 250.778 176.692 252.275C173.233 254.005 171.832 258.211 173.561 261.67C175.819 266.184 180.426 267.502 183.055 267.961C186.041 268.482 189.328 268.393 192.142 268.16C195.041 267.919 197.894 267.482 200.141 267.107C200.784 267 201.464 266.883 202.056 266.781C202.437 266.715 202.78 266.656 203.054 266.61C203.449 266.543 203.767 266.491 204.022 266.453C204.148 266.434 204.246 266.421 204.321 266.411C204.397 266.401 204.43 266.398 204.428 266.398C208.279 266.044 211.114 262.635 210.759 258.784C210.405 254.933 206.996 252.098 203.145 252.453C202.245 252.535 200.723 252.798 199.252 253.052C198.767 253.135 198.288 253.218 197.838 253.293C195.705 253.649 193.302 254.011 190.985 254.203C188.583 254.402 186.693 254.379 185.461 254.164C185.39 254.152 185.325 254.14 185.265 254.128ZM184.837 254.022C184.755 253.995 184.721 253.978 184.724 253.976C184.728 253.974 184.769 253.987 184.837 254.022Z" fill="black"/>
<path fill-rule="evenodd" clip-rule="evenodd" d="M180.534 198.288C184.401 198.19 187.614 201.245 187.712 205.111C187.742 206.283 187.772 207.456 187.802 208.63C188.168 222.959 188.536 237.374 188.602 251.801C188.604 252.305 188.62 252.897 188.637 253.556C188.71 256.384 188.816 260.442 188.056 264.032C187.431 266.979 186.145 269.819 183.805 272.085C181.479 274.338 178.655 275.498 175.873 276.054C172.081 276.813 168.392 274.353 167.633 270.561C166.875 266.769 169.334 263.08 173.127 262.322C173.711 262.205 173.972 262.076 174.058 262.024C174.067 262.011 174.078 261.991 174.092 261.963C174.148 261.854 174.255 261.601 174.355 261.13C174.741 259.307 174.701 257.487 174.645 254.936C174.625 254.018 174.603 253.006 174.597 251.864C174.532 237.592 174.168 223.32 173.801 208.961C173.772 207.797 173.742 206.632 173.712 205.466C173.614 201.6 176.668 198.387 180.534 198.288ZM174.093 262C174.093 262 174.088 262.005 174.075 262.013C174.086 262.004 174.092 261.999 174.093 262Z" fill="black"/>
<path fill-rule="evenodd" clip-rule="evenodd" d="M174.594 195.668C176.475 192.289 180.738 191.074 184.118 192.954C195.517 199.298 206.196 199.25 220.507 199.184C221.993 199.178 223.518 199.171 225.087 199.171C228.954 199.171 232.089 202.306 232.089 206.173C232.089 210.04 228.954 213.175 225.087 213.175C223.527 213.175 221.961 213.187 220.39 213.199C206.471 213.306 192.088 213.417 177.307 205.191C173.928 203.311 172.713 199.047 174.594 195.668Z" fill="black"/>
<path fill-rule="evenodd" clip-rule="evenodd" d="M344.996 207.949C344.996 204.081 348.131 200.946 351.998 200.946H373.298C377.165 200.946 380.3 204.081 380.3 207.949C380.3 211.816 377.165 214.951 373.298 214.951H351.998C348.131 214.951 344.996 211.816 344.996 207.949Z" fill="black"/>
<path fill-rule="evenodd" clip-rule="evenodd" d="M335.673 195.73C339.479 195.046 343.119 197.576 343.804 201.383C344.176 203.454 344.555 205.537 344.937 207.631C348.339 226.299 351.901 245.848 351.901 265.634C351.901 269.501 348.766 272.636 344.899 272.636C341.032 272.636 337.897 269.501 337.897 265.634C337.897 247.192 334.573 228.917 331.144 210.063C330.769 208.003 330.393 205.936 330.02 203.861C329.336 200.054 331.866 196.414 335.673 195.73Z" fill="black"/>
<path fill-rule="evenodd" clip-rule="evenodd" d="M330.841 265.745C331.272 261.902 334.737 259.136 338.58 259.567C341.988 259.949 345.557 260.275 349.21 260.609C357.21 261.339 365.618 262.107 373.631 263.583C373.962 263.644 374.304 263.717 374.56 263.772L374.648 263.791C374.879 263.84 375.077 263.882 375.279 263.923C377.221 262.869 379.63 262.749 381.756 263.812C385.215 265.542 386.617 269.748 384.888 273.207C383.579 275.825 381.335 277.112 379.513 277.656C377.856 278.151 376.302 278.127 375.316 278.057C373.74 277.946 371.598 277.468 371.169 277.373C371.126 277.363 371.1 277.357 371.094 277.356C363.703 275.995 356.405 275.331 348.768 274.638C344.954 274.291 341.056 273.937 337.019 273.484C333.176 273.053 330.41 269.588 330.841 265.745ZM376.382 264.09C376.383 264.091 376.368 264.091 376.336 264.09C376.366 264.089 376.382 264.09 376.382 264.09Z" fill="black"/>
<path fill-rule="evenodd" clip-rule="evenodd" d="M366.83 205.479C370.645 204.847 374.25 207.427 374.882 211.243C378.079 230.54 381.342 250.237 381.189 270.62C381.187 270.794 381.186 270.974 381.186 271.158C381.172 274.3 381.152 278.879 378.416 283.439C376.426 286.755 372.125 287.831 368.809 285.841C365.493 283.852 364.417 279.55 366.407 276.234C367.033 275.19 367.156 274.262 367.184 270.515C367.327 251.53 364.293 233.009 361.066 213.532C360.434 209.716 363.014 206.111 366.83 205.479Z" fill="black"/>
<path d="M208.319 206.568L183.811 203.066V262.586H208.319V206.568Z" fill="black"/>
<path d="M371.122 206.568H337.861L344.863 269.588H376.374L371.122 206.568Z" fill="black"/>
<defs>
<linearGradient id="paint0_linear_333_3190" x1="262.586" y1="0" x2="262.586" y2="446.396" gradientUnits="userSpaceOnUse">
<stop stop-color="#D268DB"/>
<stop offset="1" stop-color="#7A55A9"/>
</linearGradient>
</defs>
</svg>
